<?xml version="1.0" standalone="no"?>
<!DOCTYPE svg PUBLIC "-//W3C//DTD SVG 1.1//EN" "http://www.w3.org/Graphics/SVG/1.1/DTD/svg11.dtd" >
<svg xmlns="http://www.w3.org/2000/svg">
<metadata></metadata>
<defs>
<font id="the_sans_extra_lightcaps" horiz-adv-x="1310" >
<font-face units-per-em="2048" ascent="1638" descent="-410" />
<missing-glyph horiz-adv-x="446" />
<glyph horiz-adv-x="2048" />
<glyph horiz-adv-x="2048" />
<glyph unicode="&#xd;" horiz-adv-x="2048" />
<glyph unicode=" "  horiz-adv-x="446" />
<glyph unicode="&#x09;" horiz-adv-x="446" />
<glyph unicode="&#xa0;" horiz-adv-x="446" />
<glyph unicode="!" horiz-adv-x="489" d="M164 59q0 32 23 55t57 23t58 -23t24 -55t-24 -54.5t-58 -22.5t-57 22.5t-23 54.5zM180 1100h127l-18 -860h-88z" />
<glyph unicode="&#x22;" horiz-adv-x="671" d="M123 1495h127l-25 -422h-78zM422 1495h127l-25 -422h-78z" />
<glyph unicode="#" horiz-adv-x="1370" d="M66 420v74h333l47 450h-325v74h334l39 364h90l-39 -364h346l39 364h90l-39 -364h322v-74h-330l-47 -450h321v-74h-329l-46 -420h-90l45 420h-346l-45 -420h-90l45 420h-325zM489 494h347l47 450h-346z" />
<glyph unicode="$" horiz-adv-x="993" d="M111 1044q0 142 101.5 239t270.5 110l9 229h92l-9 -227q59 0 134 -13t129 -34l-17 -93q-123 54 -248 54l-20 -559q191 -76 272.5 -163.5t81.5 -215.5q0 -105 -54 -189t-139.5 -130.5t-189.5 -59.5l-10 -301h-92l10 295q-159 0 -305 51l16 106q126 -63 293 -63l21 590 q-128 51 -200 99t-109 114.5t-37 160.5zM219 1053q0 -92 55 -151t187 -114l18 517q-117 -11 -188.5 -76.5t-71.5 -175.5zM528 84q121 16 194 83.5t73 182.5q0 102 -54.5 165t-191.5 120z" />
<glyph unicode="%" horiz-adv-x="1605" d="M100 1059q0 108 46.5 187t117 116t154.5 37q65 0 117.5 -16.5t94.5 -51.5t65.5 -96.5t23.5 -144.5q0 -157 -95.5 -249.5t-228.5 -92.5q-63 0 -114 16.5t-93 52t-65 97t-23 145.5zM209 1075q0 -244 194 -244q94 0 150.5 67t56.5 179q0 120 -49.5 179t-152.5 59 q-85 0 -142 -67.5t-57 -172.5zM266 12l957 1411l75 -53l-956 -1411zM854 295q0 160 93.5 250t223.5 90q65 0 117.5 -16.5t95 -51.5t66 -96.5t23.5 -144.5q0 -157 -95.5 -249.5t-228.5 -92.5q-63 0 -114 16.5t-93 52t-65 97t-23 145.5zM963 311q0 -243 194 -243 q94 0 150.5 66.5t56.5 178.5q0 238 -203 238q-85 0 -141.5 -67.5t-56.5 -172.5z" />
<glyph unicode="&#x26;" horiz-adv-x="1273" d="M100 293q0 58 19 109t58.5 96t74 75.5t90.5 73.5q-158 179 -158 275q0 109 74.5 178t192.5 69q114 0 177.5 -57.5t63.5 -146.5q0 -50 -16 -95t-48.5 -85t-64.5 -70t-80 -68q161 -170 406 -368q67 86 98 195t19 226h112q8 -130 -32 -255t-123 -224q118 -93 233 -172 l-63 -84q-115 82 -244 180q-182 -161 -438 -161q-164 0 -257.5 85.5t-93.5 223.5zM211 299q0 -94 71.5 -160.5t184.5 -66.5q202 0 352 131q-260 211 -418 379q-88 -66 -139 -132t-51 -151zM289 936q0 -72 137 -225q77 60 118.5 115t41.5 124q0 59 -37 95t-111 36 q-67 0 -108 -38.5t-41 -106.5z" />
<glyph unicode="'" horiz-adv-x="372" d="M123 1495h127l-25 -422h-78z" />
<glyph unicode="(" horiz-adv-x="614" d="M180 580q0 527 285 989h100q-138 -222 -209 -471.5t-71 -505.5q0 -276 68.5 -518t213.5 -469h-104q-86 139 -144.5 273.5t-87.5 258.5t-40 226.5t-11 216.5z" />
<glyph unicode=")" horiz-adv-x="614" d="M63 -395q145 227 214 469t69 518q0 256 -71 505.5t-209 471.5h100q285 -462 285 -989q0 -114 -11 -216.5t-40 -226.5t-87.5 -258.5t-144.5 -273.5h-105z" />
<glyph unicode="*" horiz-adv-x="743" d="M92 1102l213 104l-213 105l45 78l197 -129l-15 235h91l-15 -235l197 129l43 -76l-213 -105l213 -104l-45 -80l-197 131l15 -235h-91l15 235l-197 -131z" />
<glyph unicode="+" horiz-adv-x="1146" d="M61 481v92h459v480h103v-480h462v-92h-462v-481h-103v481h-459z" />
<glyph unicode="," horiz-adv-x="409" d="M49 -233q58 62 84.5 120t25.5 94t-18 60q-28 41 -7 81t65 40q56 0 78 -55q32 -81 -34 -204q-48 -90 -143 -182z" />
<glyph unicode="-" horiz-adv-x="667" d="M102 463v88h463v-88h-463z" />
<glyph unicode="." horiz-adv-x="409" d="M117 74q0 37 25.5 62.5t62.5 25.5t62.5 -25.5t25.5 -62.5t-25.5 -62.5t-62.5 -25.5t-62.5 25.5t-25.5 62.5z" />
<glyph unicode="/" horiz-adv-x="845" d="M117 0l528 1382h98l-526 -1382h-100z" />
<glyph unicode="0" horiz-adv-x="1189" d="M123 698q0 174 37 310t103.5 220.5t154 127.5t192.5 43q457 0 457 -692q0 -157 -29.5 -283t-76.5 -206.5t-111 -134.5t-129.5 -76.5t-134.5 -22.5q-227 0 -345 172t-118 542zM240 713q0 -637 352 -637q157 0 257.5 155t100.5 461q0 323 -88.5 470t-265.5 147 q-76 0 -139 -34t-112.5 -103.5t-77 -186.5t-27.5 -272z" />
<glyph unicode="1" horiz-adv-x="706" d="M68 1264l323 118h94v-1382h-112v1276l-283 -113z" />
<glyph unicode="2" horiz-adv-x="1030" d="M145 0v86l308 360q167 198 228.5 321.5t61.5 258.5q0 125 -71.5 204t-210.5 79q-67 0 -143.5 -24t-141.5 -64l-16 98q157 80 325 80q174 0 273.5 -100.5t99.5 -260.5q0 -149 -75 -289.5t-271 -369.5l-242 -283v-2q156 6 648 6v-100h-773z" />
<glyph unicode="3" horiz-adv-x="1073" d="M168 4l12 105q76 -27 193 -27q161 0 260.5 90t99.5 223q0 154 -131.5 231.5t-378.5 51.5v90q479 -12 479 303q0 114 -70 176t-192 62q-130 0 -252 -66l-10 98q139 58 277 58q93 0 164 -25t113.5 -68.5t63.5 -99t21 -121.5q0 -122 -65 -212t-179 -132v-4 q120 -14 198.5 -107t78.5 -229q0 -178 -139.5 -296.5t-350.5 -118.5q-116 0 -192 18z" />
<glyph unicode="4" horiz-adv-x="1093" d="M35 424l612 958h148v-940h254v-100h-254v-342h-109v342h-645zM150 436q152 6 536 6v832h-2z" />
<glyph unicode="5" horiz-adv-x="950" d="M147 -8l13 106q62 -16 121 -16q192 0 305.5 94t113.5 248q0 151 -109 231t-319 80h-82v647h592v-106h-487v-440q251 0 384.5 -105.5t133.5 -286.5q0 -203 -153.5 -331.5t-393.5 -128.5q-49 0 -119 8z" />
<glyph unicode="6" horiz-adv-x="1177" d="M164 539q0 184 35.5 331t97 245t148.5 162.5t186.5 93t214.5 28.5q56 0 88 -4v-99q-54 7 -107 7q-459 0 -540 -541q-7 -47 -19 -100v-7q52 97 147 151t222 54q187 0 304.5 -114t117.5 -283q0 -212 -127 -345.5t-336 -133.5q-208 0 -320 145.5t-112 409.5zM287 428 q0 -96 38 -176.5t110.5 -130t166.5 -49.5q162 0 254 101t92 267q0 144 -86.5 237t-240.5 93q-149 0 -241.5 -97t-92.5 -245z" />
<glyph unicode="7" horiz-adv-x="923" d="M57 1276v106h799v-94q-132 -278 -256 -633t-192 -655h-127q85 329 215 689t239 591q-51 -4 -678 -4z" />
<glyph unicode="8" horiz-adv-x="1116" d="M141 311q0 53 18 103t45 87.5t71.5 77.5t82.5 67.5t93 62.5q-148 84 -217.5 166.5t-69.5 193.5q0 150 110.5 244t296.5 94q170 0 269.5 -88.5t99.5 -226.5q0 -49 -17 -94.5t-42.5 -80t-68 -72t-79 -63t-90.5 -59.5q159 -87 242.5 -177t83.5 -210q0 -160 -121 -256 t-309 -96q-192 0 -295 92t-103 235zM258 324q0 -113 80 -179.5t219 -66.5q125 0 209 62t84 175q0 48 -18.5 91.5t-44 75t-72.5 67t-82 56.5t-94 54q-52 -32 -86 -55t-74.5 -57.5t-64 -65.5t-40 -72t-16.5 -85zM276 1083q0 -92 68 -161.5t211 -149.5q148 93 208 161t60 148 q0 103 -70 169.5t-196 66.5q-128 0 -204.5 -64.5t-76.5 -169.5z" />
<glyph unicode="9" horiz-adv-x="1193" d="M137 938q0 200 124 331.5t329 131.5q96 0 174 -32t138 -98.5t93 -178t33 -261.5q0 -139 -20 -256t-55 -202.5t-85.5 -153t-108.5 -111.5t-126.5 -72t-136.5 -40t-142 -12q-91 0 -159 10v108q81 -20 176 -20q454 0 524 510q2 16 5 40.5t5 40.5t4 23v4q-48 -78 -146 -131 t-214 -53q-189 0 -300.5 114t-111.5 308zM248 963q0 -164 85.5 -256.5t229.5 -92.5q150 0 244 96t94 224q0 171 -90 274t-236 103q-140 0 -233.5 -100t-93.5 -248z" />
<glyph unicode=":" horiz-adv-x="491" d="M158 74q0 37 25.5 62.5t62.5 25.5t62.5 -25.5t25.5 -62.5t-25.5 -62.5t-62.5 -25.5t-62.5 25.5t-25.5 62.5zM158 692q0 37 25.5 62.5t62.5 25.5t62.5 -25.5t25.5 -62.5t-25.5 -62.5t-62.5 -25.5t-62.5 25.5t-25.5 62.5z" />
<glyph unicode=";" horiz-adv-x="491" d="M94 -233q58 62 84.5 120t25.5 94t-18 60q-28 41 -7 81t65 40q56 0 78 -55q32 -81 -34 -204q-48 -90 -143 -182zM158 692q0 37 25.5 62.5t62.5 25.5t62.5 -25.5t25.5 -62.5t-25.5 -62.5t-62.5 -25.5t-62.5 25.5t-25.5 62.5z" />
<glyph unicode="&#x3c;" horiz-adv-x="1024" d="M102 592l686 287v-578z" />
<glyph unicode="=" horiz-adv-x="1228" d="M164 319v95h901v-95h-901zM164 629v94h901v-94h-901z" />
<glyph unicode="&#x3e;" horiz-adv-x="1024" d="M236 301v578l686 -287z" />
<glyph unicode="?" horiz-adv-x="679" d="M135 1012l15 96q186 -13 303.5 -97t117.5 -200q0 -55 -25 -103.5t-59.5 -81t-72.5 -73t-63.5 -79.5t-32 -100t21.5 -134h-107q-24 66 -25 122.5t16.5 97t45 76.5t59.5 66.5t59.5 59.5t46 63.5t18.5 71.5q0 61 -48.5 110t-120 75t-149.5 30zM211 59q0 32 24 55t58 23 t57 -23t23 -55t-23 -54.5t-57 -22.5t-58 22.5t-24 54.5z" />
<glyph unicode="@" horiz-adv-x="1751" d="M180 643q0 162 61.5 306t164.5 244.5t240 159t284 58.5q154 0 277.5 -49.5t202 -134.5t120 -194.5t41.5 -233.5q0 -218 -100 -330.5t-267 -112.5q-60 0 -103.5 19.5t-63.5 50.5t-28 69.5t3 75.5h-4q-24 -80 -103.5 -147.5t-175.5 -67.5t-136 57t-40 167q0 130 45 237 t136.5 173.5t213.5 66.5q93 0 226 -19l-68 -372q-40 -222 125 -222q237 0 237 351q0 103 -33 196t-96.5 168t-170 119.5t-242.5 44.5q-132 0 -250.5 -51t-205 -139t-137 -213.5t-50.5 -268.5q0 -170 69 -306t201 -215t305 -79q149 0 279 41v-96q-128 -35 -291 -35 q-198 0 -350.5 87.5t-234 242.5t-81.5 352zM668 602q0 -151 88 -151q93 0 167.5 115t110.5 300l19 92q-54 13 -123 13q-68 0 -120.5 -36.5t-82 -93.5t-44.5 -118.5t-15 -120.5z" />
<glyph unicode="A" horiz-adv-x="1239" d="M37 0l526 1382h117l522 -1382h-129l-131 362h-653l-133 -362h-119zM322 453h587l-231 620q-37 101 -62 195h-2q-29 -101 -61 -189z" />
<glyph unicode="B" horiz-adv-x="1146" d="M205 0v1382q32 0 145 2t205 2q220 0 326 -85t106 -236q0 -117 -76 -209.5t-200 -126.5v-2q107 -14 179 -64.5t102 -116.5t30 -145q0 -32 -5 -64.5t-19.5 -73.5t-37.5 -77.5t-63 -72.5t-92 -61.5t-128.5 -41.5t-168.5 -16q-21 0 -303 6zM315 96q82 -12 207 -12 q196 0 291.5 85t95.5 226q0 65 -23.5 114t-63 80t-98.5 50.5t-123.5 27t-143.5 7.5q-105 0 -142 -2v-576zM315 762q47 -2 144 -2q201 0 308 75t107 212q0 57 -15 100t-51.5 78.5t-104.5 54t-168 18.5q-88 0 -220 -4v-532z" />
<glyph unicode="C" horiz-adv-x="1228" d="M111 664q0 125 23 233t73.5 200.5t126.5 158t187.5 102.5t250.5 37q163 0 332 -43l-12 -105q-183 58 -351 58q-108 0 -194.5 -33t-145 -90t-98 -136.5t-57 -170t-17.5 -193.5q0 -291 133 -446.5t400 -155.5q86 0 183 23t167 59l10 -99q-183 -79 -395 -79q-300 0 -458 176 t-158 504z" />
<glyph unicode="D" horiz-adv-x="1411" d="M205 0v1382q50 0 180 3.5t199 3.5q349 0 532.5 -172.5t183.5 -516.5q0 -174 -58 -310t-163 -222t-246.5 -130t-314.5 -44q-66 0 -168 4q-79 3 -123 2h-22zM315 98q116 -14 222 -14q147 0 264.5 36.5t204 109.5t133.5 191t47 273q0 303 -158 454.5t-461 151.5 q-69 0 -252 -6v-1196z" />
<glyph unicode="E" horiz-adv-x="1044" d="M205 0v1382h672v-88h-562v-536h535v-88h-535v-580h562v-90h-672z" />
<glyph unicode="F" horiz-adv-x="966" d="M205 0v1382h672v-88h-562v-536h531v-88h-531v-670h-110z" />
<glyph unicode="G" horiz-adv-x="1411" d="M102 668q0 155 50 289t141 232t227 154t301 56q182 0 371 -58l-18 -106q-187 74 -369 74q-115 0 -218 -38t-186.5 -112t-132.5 -195.5t-49 -275.5q0 -290 159.5 -451t420.5 -161q166 0 309 47v561h111v-627q-207 -73 -441 -73q-200 0 -352 79.5t-238 235.5t-86 369z" />
<glyph unicode="H" horiz-adv-x="1452" d="M205 0v1382h110v-618h822v618h110v-1382h-110v674h-822v-674h-110z" />
<glyph unicode="I" horiz-adv-x="520" d="M205 0v1382h110v-1382h-110z" />
<glyph unicode="J" horiz-adv-x="663" d="M2 4v105q83 -27 156 -27q49 0 82 11.5t58.5 40t37.5 81.5t12 133v1034h111v-1046q0 -177 -76.5 -262.5t-243.5 -85.5q-59 0 -137 16z" />
<glyph unicode="K" horiz-adv-x="1171" d="M205 0v1382h110v-675l650 675h141l-660 -669l680 -713h-161l-650 707v-707h-110z" />
<glyph unicode="L" horiz-adv-x="868" d="M205 0v1382h110v-1292h541v-90h-651z" />
<glyph unicode="M" horiz-adv-x="1837" d="M133 0l191 1382h151l350 -1026q66 -193 78 -260h4q17 76 74 242l360 1044h162l201 -1382h-119l-133 932q-30 204 -43 352h-4q-26 -96 -64 -205l-368 -1079h-142l-348 1014q-6 19 -24 70l-27 76.5t-19.5 62t-15.5 61.5h-2q-7 -117 -37 -364l-108 -920h-117z" />
<glyph unicode="N" horiz-adv-x="1466" d="M205 0v1382h151l639 -995q86 -135 170 -283q-14 474 -14 920v358h111v-1382h-152l-645 1008q-106 165 -164 276q14 -401 14 -889v-395h-110z" />
<glyph unicode="O" horiz-adv-x="1445" d="M102 678q0 171 50.5 309t137.5 227t202 137t247 48q284 0 444 -184t160 -510q0 -170 -50.5 -308t-137.5 -227.5t-202 -137.5t-246 -48q-199 0 -337 88t-203 242t-65 364zM221 705q0 -187 54.5 -326.5t169 -220t278.5 -80.5q100 0 190.5 41t160 116t110.5 190.5t41 254.5 q0 297 -133 462t-369 165q-101 0 -191.5 -41t-160 -116t-110 -190t-40.5 -255z" />
<glyph unicode="P" horiz-adv-x="1058" d="M205 0v1382q161 7 307 7q219 0 341 -105.5t122 -275.5q0 -132 -71.5 -234.5t-190.5 -156.5t-264 -54q-73 0 -134 6v-569h-110zM315 666q79 -11 146 -11q186 1 291.5 91t105.5 239q0 311 -373 311q-121 0 -170 -4v-626z" />
<glyph unicode="Q" horiz-adv-x="1443" d="M102 678q0 171 50.5 309t137.5 227t202 137t247 48q284 0 444 -184t160 -510q0 -170 -50.5 -308t-137.5 -227.5t-202 -137.5t-246 -48q-199 0 -337 88t-203 242t-65 364zM221 705q0 -187 54.5 -326.5t169 -220t278.5 -80.5q100 0 190.5 41t160 116t110.5 190.5t41 254.5 q0 297 -133 462t-369 165q-101 0 -191.5 -41t-160 -116t-110 -190t-40.5 -255zM692 -166q49 7 99 7q33 0 67 -3q82 -8 143 -24.5t135.5 -33.5t142.5 -25q29 -3 62 -3q47 0 103 6v-102q-58 -7 -113 -7q-54 0 -107 7q-107 13 -180.5 36.5t-168.5 37.5q-50 8 -98 8 q-43 0 -85 -6v102z" />
<glyph unicode="R" horiz-adv-x="1105" d="M205 0v1382q140 7 295 7q75 0 138.5 -10.5t120 -35t95.5 -62t61.5 -94.5t22.5 -130q0 -127 -66.5 -217.5t-175 -133t-247.5 -42.5q69 -75 126 -142l449 -522h-150l-552 666h-7v-666h-110zM315 756q50 -4 140 -4q173 0 270.5 78t97.5 204q0 145 -90 205.5t-270 60.5 q-77 0 -148 -6v-538z" />
<glyph unicode="S" horiz-adv-x="1032" d="M125 1030q0 161 123.5 265t335.5 104q112 0 247 -27l-6 -104q-122 39 -250 39q-163 0 -251 -71.5t-88 -193.5q0 -70 37 -122.5t95.5 -84.5t129.5 -60t142.5 -59t130 -70.5t95.5 -105t37 -153.5q0 -181 -131 -292t-354 -111q-161 0 -277 36l6 113q144 -51 281 -51 q76 0 139.5 16t114.5 49t80 91t29 135q0 56 -23 101t-61.5 75.5t-88.5 55.5t-105 47t-110 44.5t-105 52t-88.5 66.5t-61.5 92t-23 123z" />
<glyph unicode="T" horiz-adv-x="1069" d="M41 1292v90h987v-90h-438v-1292h-111v1292h-438z" />
<glyph unicode="U" horiz-adv-x="1441" d="M205 451v931h110v-917q0 -67 10 -121.5t37 -106t70.5 -86.5t115.5 -56t167 -21q211 0 312 100.5t101 333.5v874h109v-862q0 -262 -133.5 -399t-398.5 -137q-103 0 -184.5 18.5t-135 53t-90 77t-55.5 98t-27 107.5t-8 113z" />
<glyph unicode="V" horiz-adv-x="1243" d="M37 1382h129l348 -966q55 -149 100 -303h2q37 129 107 313l362 956h117l-532 -1382h-117z" />
<glyph unicode="W" horiz-adv-x="1951" d="M90 1382h119l276 -1034q42 -159 60 -252h2q28 145 57 240l299 1046h146l315 -1065q38 -132 55 -221h2q11 62 43 187l289 1099h109l-375 -1382h-141l-322 1094q-42 151 -51 194h-2q-15 -79 -49 -198l-312 -1090h-143z" />
<glyph unicode="X" horiz-adv-x="1167" d="M49 0l467 717l-438 665h129l371 -575l366 575h125l-430 -653l479 -729h-137l-406 633l-401 -633h-125z" />
<glyph unicode="Y" horiz-adv-x="1050" d="M33 1382h123l256 -532q48 -98 112 -252h2q43 108 125 272l250 512h117l-443 -876v-506h-110v506z" />
<glyph unicode="Z" horiz-adv-x="1107" d="M96 0v76l660 1011q75 116 137 201q-168 -4 -354 -4h-418v98h889v-75l-695 -1065q-59 -91 -98 -148q51 6 389 6h410v-100h-920z" />
<glyph unicode="[" horiz-adv-x="647" d="M205 -395v1964h360v-80h-260v-1802h260v-82h-360z" />
<glyph unicode="\" horiz-adv-x="829" d="M100 1382h95l528 -1382h-98z" />
<glyph unicode="]" horiz-adv-x="647" d="M82 -313h260v1802h-260v80h360v-1964h-360v82z" />
<glyph unicode="^" horiz-adv-x="1095" d="M150 758l342 624h96l356 -622l-86 -45l-321 577l-308 -577z" />
<glyph unicode="_" horiz-adv-x="1024" d="M0 -432h1024v-84h-1024v84z" />
<glyph unicode="`" horiz-adv-x="747" d="M219 1411l76 76l227 -227l-59 -60z" />
<glyph unicode="a" horiz-adv-x="1085" d="M57 0l430 1065h117l424 -1065h-123l-100 258h-533l-102 -258h-113zM307 344h463l-162 416q-38 95 -67 192h-2q-20 -72 -68 -196z" />
<glyph unicode="b" horiz-adv-x="1058" d="M229 0v1065q27 0 125.5 2t177.5 2q173 0 255.5 -68.5t82.5 -183.5q0 -89 -53.5 -154.5t-150.5 -99.5v-2q114 -21 172.5 -88t58.5 -160q0 -38 -8.5 -75.5t-36 -83t-71 -79t-121 -56.5t-179.5 -23q-72 0 -252 4zM340 94q52 -10 154 -10q146 0 218 60.5t72 162.5 q0 58 -25.5 98.5t-73.5 62.5t-106 31t-133 9q-77 0 -106 -2v-412zM340 596q45 -2 106 -2q150 0 231 53.5t81 157.5q0 176 -252 176q-30 0 -86 -1t-80 -1v-383z" />
<glyph unicode="c" horiz-adv-x="1034" d="M119 512q0 94 19.5 177t62.5 154.5t105.5 122.5t154 80t203.5 29q126 0 258 -33l-13 -102q-136 43 -268 43q-102 0 -181 -36t-127 -99.5t-72.5 -145t-24.5 -178.5q0 -214 106 -327t313 -113q148 0 269 59l10 -98q-140 -57 -309 -57q-245 0 -375.5 136t-130.5 388z" />
<glyph unicode="d" horiz-adv-x="1216" d="M229 0v1065q39 0 146.5 2t165.5 2q275 0 423 -129t148 -399q0 -135 -46 -239.5t-130 -171t-197 -100.5t-250 -34q-59 0 -143 2t-117 2zM340 92q82 -8 166 -8q228 0 359.5 111.5t131.5 336.5q0 451 -481 451q-90 0 -176 -6v-885z" />
<glyph unicode="e" horiz-adv-x="931" d="M229 0v1065h549v-86h-438v-385h418v-86h-418v-420h438v-88h-549z" />
<glyph unicode="f" horiz-adv-x="894" d="M229 0v1065h547v-86h-436v-393h412v-86h-412v-500h-111z" />
<glyph unicode="g" horiz-adv-x="1210" d="M106 514q0 160 68.5 287t201 201.5t308.5 74.5q154 0 299 -45l-12 -102q-156 59 -299 59q-89 0 -169 -28.5t-143.5 -83.5t-101 -144.5t-37.5 -202.5q0 -214 123 -332t330 -118q120 0 221 33v419h111v-487q-168 -57 -357 -57q-246 0 -394.5 138.5t-148.5 387.5z" />
<glyph unicode="h" horiz-adv-x="1304" d="M229 0v1065h111v-467h625v467h110v-1065h-110v506h-625v-506h-111z" />
<glyph unicode="i" horiz-adv-x="569" d="M229 0v1065h111v-1065h-111z" />
<glyph unicode="j" horiz-adv-x="661" d="M61 4v102q66 -20 123 -20q79 0 112.5 48t33.5 171v760h110v-766q0 -160 -61 -235.5t-205 -75.5q-57 0 -113 16z" />
<glyph unicode="k" horiz-adv-x="1062" d="M229 0v1065h111v-520l500 520h143l-510 -514l528 -551h-155l-506 545v-545h-111z" />
<glyph unicode="l" horiz-adv-x="804" d="M229 0v1065h111v-977h416v-88h-527z" />
<glyph unicode="m" horiz-adv-x="1626" d="M188 0l156 1065h135l262 -746q54 -149 64 -204h2q15 69 59 192l271 758h149l152 -1065h-115l-94 670q-16 119 -33 276h-2q-17 -68 -53 -170l-275 -776h-125l-256 727q-62 179 -69 219h-2q-4 -78 -29 -278l-86 -668h-111z" />
<glyph unicode="n" horiz-adv-x="1316" d="M229 0v1065h142l477 -719q102 -156 139 -223h2q-10 130 -10 420l-2 522h110v-1065h-143l-483 725q-84 130 -133 223h-2q10 -200 10 -315l2 -633h-109z" />
<glyph unicode="o" horiz-adv-x="1226" d="M113 524q0 130 40.5 236.5t110.5 175.5t162.5 106t198.5 37q237 0 363 -141.5t126 -398.5q0 -131 -39.5 -237t-110 -174.5t-165 -105t-205.5 -36.5q-125 0 -219 40.5t-150.5 114t-84 169.5t-27.5 214zM229 539q0 -96 19 -175.5t61 -145.5t117 -103t178 -37q173 0 282 117 t109 327q0 225 -100.5 346t-282.5 121q-161 0 -272 -120t-111 -330z" />
<glyph unicode="p" horiz-adv-x="972" d="M229 0v1065q152 4 275 4q177 0 278 -84t101 -225q0 -164 -118.5 -262.5t-318.5 -98.5q-48 0 -106 7v-406h-111zM340 500q61 -11 119 -11q149 0 228 65t79 191q0 108 -73.5 171t-211.5 63q-104 0 -141 -2v-477z" />
<glyph unicode="q" horiz-adv-x="1226" d="M113 524q0 130 40.5 236.5t110.5 175.5t162.5 106t198.5 37q237 0 363 -141.5t126 -398.5q0 -131 -39.5 -237t-110 -174.5t-165 -105t-205.5 -36.5q-125 0 -219 40.5t-150.5 114t-84 169.5t-27.5 214zM229 539q0 -96 19 -175.5t61 -145.5t117 -103t178 -37q173 0 282 117 t109 327q0 225 -100.5 346t-282.5 121q-161 0 -272 -120t-111 -330zM578 -156q41 4 81 4q42 0 84 -4q81 -9 139 -26t130.5 -33t139.5 -24q32 -4 70 -4q43 0 95 5v-102q-51 -6 -102 -6q-55 0 -109 7q-105 14 -176.5 37t-167.5 38q-58 10 -113 10q-36 0 -71 -4v102z" />
<glyph unicode="r" horiz-adv-x="1017" d="M229 0v1065q106 4 254 4q176 0 269.5 -68.5t93.5 -193.5q0 -145 -106 -227t-271 -82q35 -32 100 -109l342 -389h-145l-422 498h-4v-498h-111zM340 584q56 -6 135 -6q118 0 187 58t69 157q0 96 -68.5 143t-193.5 47q-77 0 -129 -6v-393z" />
<glyph unicode="s" horiz-adv-x="950" d="M129 780q0 137 107.5 218t291.5 81q121 0 226 -20l-6 -105q-112 33 -228 33q-138 0 -208 -51t-70 -141q0 -52 31.5 -89.5t82 -59.5t111.5 -40.5t122.5 -40.5t112 -51.5t82 -81.5t31.5 -123q0 -100 -60.5 -175t-154 -111.5t-203.5 -36.5q-147 0 -250 28l7 115 q110 -47 262 -47q53 0 101 11.5t90.5 36t67.5 68.5t25 103q0 52 -31.5 90t-82 60.5t-111.5 41t-121.5 40t-111 50.5t-82 79t-31.5 118z" />
<glyph unicode="t" horiz-adv-x="866" d="M41 977v88h784v-88h-338v-977h-110v977h-336z" />
<glyph unicode="u" d="M221 360v705h111v-696q0 -147 84 -220t239 -73q326 0 326 321v668h109v-664q0 -86 -25.5 -158.5t-77 -131t-139 -92t-203.5 -33.5q-205 0 -314.5 95t-109.5 279z" />
<glyph unicode="v" horiz-adv-x="1054" d="M35 1065h127l266 -690q54 -137 92 -262h2q55 155 94 249l287 703h117l-440 -1065h-117z" />
<glyph unicode="w" horiz-adv-x="1792" d="M74 1065h131l227 -723q43 -137 66 -231h2q32 129 69 233l254 721h140l256 -721q39 -111 73 -235h2q18 62 74 233l227 723h127l-362 -1065h-135l-254 705q-46 122 -84 245h-2q-37 -128 -82 -258l-242 -692h-137z" />
<glyph unicode="x" horiz-adv-x="1146" d="M88 0l420 532l-402 533h146l321 -451l332 451h133l-403 -526l420 -539h-154l-334 461l-338 -461h-141z" />
<glyph unicode="y" horiz-adv-x="915" d="M33 1065h123l206 -391q61 -116 93 -193h2q43 96 104 209l205 375h117l-373 -678v-387h-111v387z" />
<glyph unicode="z" horiz-adv-x="1003" d="M123 0v76l526 751q64 92 105 146q-126 -4 -273 -4h-340v96h731v-78l-550 -788q-64 -92 -74 -105q37 6 287 6h344v-100h-756z" />
<glyph unicode="{" horiz-adv-x="657" d="M63 608v94q136 7 182 53.5t46 168.5v301q0 55 7 102t26 93t48.5 78t77 51.5t109.5 19.5h31v-80q-111 0 -155 -57.5t-44 -198.5v-299q0 -239 -192 -277v-2q96 -14 144 -88.5t48 -189.5v-436q0 -141 43.5 -197.5t155.5 -56.5v-82h-31q-145 0 -206.5 86.5t-61.5 257.5v438 q0 116 -48.5 165t-179.5 56z" />
<glyph unicode="|" horiz-adv-x="577" d="M246 -512v2048h86v-2048h-86z" />
<glyph unicode="}" horiz-adv-x="647" d="M84 -313q112 0 155.5 56.5t43.5 197.5v436q0 115 48 189.5t144 88.5v2q-98 13 -145 85t-47 182v309q0 141 -44 198.5t-155 57.5v80h31q62 0 109.5 -19.5t77 -51.5t48.5 -78t26 -93t7 -102v-291q0 -129 45.5 -177t181.5 -55v-94q-131 -7 -179 -56t-48 -165v-438 q0 -171 -61.5 -257.5t-206.5 -86.5h-31v82z" />
<glyph unicode="~" horiz-adv-x="1200" d="M123 569q123 105 250 105q59 0 111 -15t90.5 -36t76 -42t84.5 -36t99 -15q44 0 99 29t101 70l43 -74q-134 -117 -260 -117q-73 0 -139 23t-107.5 50t-97 50t-108.5 23q-95 0 -203 -90z" />
<glyph horiz-adv-x="1239" d="M37 0l526 1382h117l522 -1382h-129l-131 362h-653l-133 -362h-119zM322 453h587l-231 620q-37 101 -62 195h-2q-29 -101 -61 -189zM354 1618q0 34 23 57t57 23t57 -23t23 -57t-23 -57t-57 -23t-57 23t-23 57zM727 1618q0 34 23 57t57 23t57 -23t23 -57t-23 -57t-57 -23 t-57 23t-23 57z" />
<glyph horiz-adv-x="1239" d="M37 0l526 1382h117l522 -1382h-129l-131 362h-653l-133 -362h-119zM322 453h587l-231 620q-37 101 -62 195h-2q-29 -101 -61 -189zM420 1573q0 84 60.5 142.5t144.5 58.5q87 0 145.5 -58t58.5 -143q0 -80 -60 -140.5t-144 -60.5q-87 0 -146 57t-59 144zM506 1573 q0 -51 34 -87t85 -36t84.5 35.5t33.5 87.5t-33.5 87.5t-84.5 35.5t-85 -36t-34 -87z" />
<glyph horiz-adv-x="1228" d="M111 664q0 125 23 233t73.5 200.5t126.5 158t187.5 102.5t250.5 37q163 0 332 -43l-12 -105q-183 58 -351 58q-108 0 -194.5 -33t-145 -90t-98 -136.5t-57 -170t-17.5 -193.5q0 -291 133 -446.5t400 -155.5q86 0 183 23t167 59l10 -99q-183 -79 -395 -79q-300 0 -458 176 t-158 504zM557 -430q183 142 90 326h115q20 -47 24 -90t-10.5 -91t-58 -97.5t-115.5 -98.5z" />
<glyph horiz-adv-x="1044" d="M205 0v1382h672v-88h-562v-536h535v-88h-535v-580h562v-90h-672zM438 1567l228 227l75 -76l-243 -211z" />
<glyph horiz-adv-x="1466" d="M205 0v1382h151l639 -995q86 -135 170 -283q-14 474 -14 920v358h111v-1382h-152l-645 1008q-106 165 -164 276q14 -401 14 -889v-395h-110zM406 1663q33 35 82.5 56.5t101.5 21.5q55 0 104.5 -23.5t94 -47t85.5 -23.5q73 0 140 67l35 -76q-32 -33 -79.5 -55t-101.5 -22 q-58 0 -108 23.5t-94.5 47t-87.5 23.5q-73 0 -138 -68z" />
<glyph unicode="&#x85;" horiz-adv-x="1445" d="M102 678q0 171 50.5 309t137.5 227t202 137t247 48q284 0 444 -184t160 -510q0 -170 -50.5 -308t-137.5 -227.5t-202 -137.5t-246 -48q-199 0 -337 88t-203 242t-65 364zM221 705q0 -187 54.5 -326.5t169 -220t278.5 -80.5q100 0 190.5 41t160 116t110.5 190.5t41 254.5 q0 297 -133 462t-369 165q-101 0 -191.5 -41t-160 -116t-110 -190t-40.5 -255zM446 1618q0 34 23 57t57 23t57 -23t23 -57t-23 -57t-57 -23t-57 23t-23 57zM819 1618q0 34 23 57t57 23t57 -23t23 -57t-23 -57t-57 -23t-57 23t-23 57z" />
<glyph horiz-adv-x="1441" d="M205 451v931h110v-917q0 -67 10 -121.5t37 -106t70.5 -86.5t115.5 -56t167 -21q211 0 312 100.5t101 333.5v874h109v-862q0 -262 -133.5 -399t-398.5 -137q-103 0 -184.5 18.5t-135 53t-90 77t-55.5 98t-27 107.5t-8 113zM434 1618q0 34 23 57t57 23t57 -23t23 -57 t-23 -57t-57 -23t-57 23t-23 57zM807 1618q0 34 23 57t57 23t57 -23t23 -57t-23 -57t-57 -23t-57 23t-23 57z" />
<glyph horiz-adv-x="1085" d="M57 0l430 1065h117l424 -1065h-123l-100 258h-533l-102 -258h-113zM307 344h463l-162 416q-38 95 -67 192h-2q-20 -72 -68 -196zM440 1260l228 227l75 -76l-243 -211z" />
<glyph horiz-adv-x="1085" d="M57 0l430 1065h117l424 -1065h-123l-100 258h-533l-102 -258h-113zM307 344h463l-162 416q-38 95 -67 192h-2q-20 -72 -68 -196zM338 1411l76 76l227 -227l-59 -60z" />
<glyph horiz-adv-x="1085" d="M57 0l430 1065h117l424 -1065h-123l-100 258h-533l-102 -258h-113zM285 1268l254 200l264 -194l-66 -66l-202 148l-191 -148zM307 344h463l-162 416q-38 95 -67 192h-2q-20 -72 -68 -196z" />
<glyph horiz-adv-x="1085" d="M57 0l430 1065h117l424 -1065h-123l-100 258h-533l-102 -258h-113zM285 1352q0 34 23 57t57 23t56.5 -23t22.5 -57t-22.5 -57t-56.5 -23t-57 23t-23 57zM307 344h463l-162 416q-38 95 -67 192h-2q-20 -72 -68 -196zM657 1352q0 34 23 57t57 23t57 -23t23 -57t-23 -57 t-57 -23t-57 23t-23 57z" />
<glyph horiz-adv-x="1085" d="M57 0l430 1065h117l424 -1065h-123l-100 258h-533l-102 -258h-113zM227 1356q33 35 82.5 56.5t102.5 21.5q43 0 84.5 -15t68.5 -32.5t62.5 -32.5t68.5 -15q72 0 140 68l34 -76q-74 -78 -180 -78q-46 0 -88.5 15t-69 32.5t-62.5 32.5t-71 15q-72 0 -137 -68zM307 344h463 l-162 416q-38 95 -67 192h-2q-20 -72 -68 -196z" />
<glyph horiz-adv-x="1085" d="M57 0l430 1065h117l424 -1065h-123l-100 258h-533l-102 -258h-113zM307 344h463l-162 416q-38 95 -67 192h-2q-20 -72 -68 -196zM342 1257q0 84 60.5 142.5t144.5 58.5q87 0 146 -58t59 -143q0 -80 -60.5 -140t-144.5 -60q-87 0 -146 56.5t-59 143.5zM428 1257 q0 -51 34 -86.5t85 -35.5t85 35.5t34 86.5t-34 87t-85 36t-85 -36t-34 -87z" />
<glyph horiz-adv-x="1034" d="M119 512q0 94 19.5 177t62.5 154.5t105.5 122.5t154 80t203.5 29q126 0 258 -33l-13 -102q-136 43 -268 43q-102 0 -181 -36t-127 -99.5t-72.5 -145t-24.5 -178.5q0 -214 106 -327t313 -113q148 0 269 59l10 -98q-140 -57 -309 -57q-245 0 -375.5 136t-130.5 388z M438 -430q183 142 90 326h115q20 -47 24 -90t-10.5 -91t-58 -97.5t-115.5 -98.5z" />
<glyph horiz-adv-x="931" d="M229 0v1065h549v-86h-438v-385h418v-86h-418v-420h438v-88h-549zM410 1260l227 227l76 -76l-244 -211z" />
<glyph horiz-adv-x="931" d="M229 0v1065h549v-86h-438v-385h418v-86h-418v-420h438v-88h-549zM287 1411l75 76l228 -227l-60 -60z" />
<glyph horiz-adv-x="931" d="M229 0v1065h549v-86h-438v-385h418v-86h-418v-420h438v-88h-549zM240 1268l254 200l264 -194l-66 -66l-203 148l-190 -148z" />
<glyph horiz-adv-x="931" d="M229 0v1065h549v-86h-438v-385h418v-86h-418v-420h438v-88h-549zM229 1352q0 34 23 57t57 23t57 -23t23 -57t-23 -57t-57 -23t-57 23t-23 57zM602 1352q0 34 23 57t57 23t57 -23t23 -57t-23 -57t-57 -23t-57 23t-23 57z" />
<glyph horiz-adv-x="569" d="M229 0v1065h111v-1065h-111zM229 1260l228 227l75 -76l-243 -211z" />
<glyph horiz-adv-x="569" d="M88 1411l76 76l227 -227l-59 -60zM229 0v1065h111v-1065h-111z" />
<glyph horiz-adv-x="569" d="M33 1268l254 200l264 -194l-66 -66l-202 148l-191 -148zM229 0v1065h111v-1065h-111z" />
<glyph horiz-adv-x="569" d="M25 1352q0 34 22.5 57t56.5 23t57 -23t23 -57t-23 -57t-57 -23t-56.5 23t-22.5 57zM229 0v1065h111v-1065h-111zM397 1352q0 34 23 57t57 23t57 -23t23 -57t-23 -57t-57 -23t-57 23t-23 57z" />
<glyph horiz-adv-x="1316" d="M229 0v1065h142l477 -719q102 -156 139 -223h2q-10 130 -10 420l-2 522h110v-1065h-143l-483 725q-84 130 -133 223h-2q10 -200 10 -315l2 -633h-109zM326 1356q33 35 82.5 56.5t101.5 21.5q55 0 105 -24t94.5 -47.5t85.5 -23.5q71 0 139 68l35 -76q-32 -34 -79.5 -56 t-101.5 -22q-46 0 -88 15t-68.5 32.5t-62.5 32.5t-71 15q-73 0 -138 -68z" />
<glyph horiz-adv-x="1226" d="M113 524q0 130 40.5 236.5t110.5 175.5t162.5 106t198.5 37q237 0 363 -141.5t126 -398.5q0 -131 -39.5 -237t-110 -174.5t-165 -105t-205.5 -36.5q-125 0 -219 40.5t-150.5 114t-84 169.5t-27.5 214zM229 539q0 -96 19 -175.5t61 -145.5t117 -103t178 -37q173 0 282 117 t109 327q0 225 -100.5 346t-282.5 121q-161 0 -272 -120t-111 -330zM526 1260l228 227l75 -76l-243 -211z" />
<glyph horiz-adv-x="1226" d="M113 524q0 130 40.5 236.5t110.5 175.5t162.5 106t198.5 37q237 0 363 -141.5t126 -398.5q0 -131 -39.5 -237t-110 -174.5t-165 -105t-205.5 -36.5q-125 0 -219 40.5t-150.5 114t-84 169.5t-27.5 214zM229 539q0 -96 19 -175.5t61 -145.5t117 -103t178 -37q173 0 282 117 t109 327q0 225 -100.5 346t-282.5 121q-161 0 -272 -120t-111 -330zM428 1411l76 76l227 -227l-59 -60z" />
<glyph horiz-adv-x="1226" d="M113 524q0 130 40.5 236.5t110.5 175.5t162.5 106t198.5 37q237 0 363 -141.5t126 -398.5q0 -131 -39.5 -237t-110 -174.5t-165 -105t-205.5 -36.5q-125 0 -219 40.5t-150.5 114t-84 169.5t-27.5 214zM229 539q0 -96 19 -175.5t61 -145.5t117 -103t178 -37q173 0 282 117 t109 327q0 225 -100.5 346t-282.5 121q-161 0 -272 -120t-111 -330zM367 1268l254 200l264 -194l-66 -66l-203 148l-190 -148z" />
<glyph horiz-adv-x="1226" d="M113 524q0 130 40.5 236.5t110.5 175.5t162.5 106t198.5 37q237 0 363 -141.5t126 -398.5q0 -131 -39.5 -237t-110 -174.5t-165 -105t-205.5 -36.5q-125 0 -219 40.5t-150.5 114t-84 169.5t-27.5 214zM229 539q0 -96 19 -175.5t61 -145.5t117 -103t178 -37q173 0 282 117 t109 327q0 225 -100.5 346t-282.5 121q-161 0 -272 -120t-111 -330zM348 1352q0 34 23 57t57 23t57 -23t23 -57t-23 -57t-57 -23t-57 23t-23 57zM721 1352q0 34 23 57t57 23t57 -23t23 -57t-23 -57t-57 -23t-57 23t-23 57z" />
<glyph horiz-adv-x="1226" d="M113 524q0 130 40.5 236.5t110.5 175.5t162.5 106t198.5 37q237 0 363 -141.5t126 -398.5q0 -131 -39.5 -237t-110 -174.5t-165 -105t-205.5 -36.5q-125 0 -219 40.5t-150.5 114t-84 169.5t-27.5 214zM229 539q0 -96 19 -175.5t61 -145.5t117 -103t178 -37q173 0 282 117 t109 327q0 225 -100.5 346t-282.5 121q-161 0 -272 -120t-111 -330zM291 1356q33 35 82.5 56.5t101.5 21.5q55 0 105 -24t94.5 -47.5t85.5 -23.5q71 0 139 68l35 -76q-74 -78 -180 -78q-46 0 -88.5 15t-69 32.5t-62.5 32.5t-71 15q-72 0 -137 -68z" />
<glyph d="M221 360v705h111v-696q0 -147 84 -220t239 -73q326 0 326 321v668h109v-664q0 -86 -25.5 -158.5t-77 -131t-139 -92t-203.5 -33.5q-205 0 -314.5 95t-109.5 279zM555 1260l227 227l76 -76l-244 -211z" />
<glyph d="M221 360v705h111v-696q0 -147 84 -220t239 -73q326 0 326 321v668h109v-664q0 -86 -25.5 -158.5t-77 -131t-139 -92t-203.5 -33.5q-205 0 -314.5 95t-109.5 279zM465 1411l76 76l227 -227l-59 -60z" />
<glyph d="M221 360v705h111v-696q0 -147 84 -220t239 -73q326 0 326 321v668h109v-664q0 -86 -25.5 -158.5t-77 -131t-139 -92t-203.5 -33.5q-205 0 -314.5 95t-109.5 279zM395 1268l254 200l264 -194l-65 -66l-203 148l-190 -148z" />
<glyph d="M221 360v705h111v-696q0 -147 84 -220t239 -73q326 0 326 321v668h109v-664q0 -86 -25.5 -158.5t-77 -131t-139 -92t-203.5 -33.5q-205 0 -314.5 95t-109.5 279zM383 1352q0 34 23 57t57 23t57 -23t23 -57t-23 -57t-57 -23t-57 23t-23 57zM756 1352q0 34 23 57t57 23 t56.5 -23t22.5 -57t-22.5 -57t-56.5 -23t-57 23t-23 57z" />
<glyph unicode="&#xa0;" horiz-adv-x="942" d="M92 1044v86h326v365h106v-365h326v-86h-326v-1044h-106v1044h-326z" />
<glyph unicode="&#xa1;" horiz-adv-x="745" d="M131 1262q0 108 72.5 173.5t171.5 65.5q113 0 175 -67t62 -168q0 -102 -74.5 -169t-172.5 -67q-107 0 -170.5 63.5t-63.5 168.5zM227 1266q0 -73 39 -115.5t103 -42.5q63 0 105 44t42 112q0 64 -34 111.5t-113 47.5q-60 0 -101 -44t-41 -113z" />
<glyph unicode="&#xa2;" horiz-adv-x="1058" d="M113 709q0 219 124 359.5t332 162.5v151h93v-149q63 -2 132.5 -14.5t106.5 -30.5l-6 -94q-47 21 -112 36t-121 15v-854q56 1 122.5 18.5t116.5 42.5l6 -102q-109 -45 -245 -57v-193h-93v193q-209 6 -332.5 135.5t-123.5 380.5zM227 729q0 -203 86.5 -312.5t255.5 -123.5 v850q-146 -16 -244 -124.5t-98 -289.5z" />
<glyph unicode="&#xa3;" horiz-adv-x="1024" d="M127 0v78q140 112 203 215t63 233q0 24 -14 189h-252v84h242q-25 235 -25 286q0 193 86 278t256 85q79 0 154 -16l-6 -93q-88 21 -162 21q-110 0 -165.5 -67.5t-55.5 -184.5q0 -42 26 -309h328v-84h-320q13 -114 13 -176q0 -144 -54.5 -244t-181.5 -207q108 10 180 10 h443v-98h-758z" />
<glyph unicode="&#xa5;" horiz-adv-x="884" d="M233 592q0 79 56.5 135.5t136.5 56.5t136 -56t56 -136t-56.5 -136.5t-135.5 -56.5q-80 0 -136.5 56.5t-56.5 136.5z" />
<glyph unicode="&#xa7;" d="M143 545v90h1024v-90h-1024z" />
<glyph unicode="&#xa9;" horiz-adv-x="1536" d="M88 686q0 137 53.5 262t143.5 215t215.5 143.5t263.5 53.5t263 -52.5t215 -141.5t143 -213.5t53 -262.5q0 -137 -53.5 -262t-143.5 -215t-215 -143.5t-262 -53.5q-190 0 -345.5 89t-243 242.5t-87.5 338.5zM184 690q0 -159 77 -294t211 -214.5t292 -79.5t291.5 78 t210.5 212.5t77 293.5q0 157 -77 292t-210.5 214.5t-291.5 79.5q-159 0 -292 -77.5t-210.5 -211.5t-77.5 -293zM446 676q0 76 19 141t59 119.5t111 85.5t166 31q69 0 155 -23l-6 -90q-81 33 -164 33q-85 0 -139.5 -40.5t-75 -102.5t-20.5 -146q0 -274 227 -274q96 0 178 30 l7 -84q-88 -30 -197 -30q-170 0 -245 95t-75 255z" />
<glyph unicode="&#xaa;" horiz-adv-x="1449" d="M121 1313v69h424v-69h-164v-506h-96v506h-164zM600 807l86 575h133l113 -376l24 -105l21 92l123 389h129l84 -575h-92l-54 354l-16 123l-29 -102l-118 -375h-109l-115 379l-26 98l-6 -78l-62 -399h-86z" />
<glyph unicode="&#xab;" horiz-adv-x="786" d="M219 1260l227 227l76 -76l-243 -211z" />
<glyph unicode="&#xac;" horiz-adv-x="1118" d="M276 1352q0 34 23 57t57 23t57 -23t23 -57t-23 -57t-57 -23t-57 23t-23 57zM649 1352q0 34 23 57t57 23t57 -23t23 -57t-23 -57t-57 -23t-57 23t-23 57z" />
<glyph unicode="&#xad;" d="M164 319v95h397l86 215h-483v94h520l133 330h96l-133 -330h367v-94h-404l-88 -215h492v-95h-529l-129 -319h-94l129 319h-360z" />
<glyph unicode="&#xae;" horiz-adv-x="1589" d="M-96 0l782 1382h711v-88h-547v-536h526v-88h-526v-580h571v-90h-682v362h-514l-200 -362h-121zM274 453h465v835h-6q-82 -161 -143 -270z" />
<glyph unicode="&#xaf;" horiz-adv-x="1445" d="M98 682q0 169 50 306.5t137 226.5t202 136.5t246 47.5q86 0 182 -21l76 203l88 -33l-75 -200q162 -69 248.5 -236t86.5 -416q0 -170 -49 -306.5t-136 -224.5t-204 -134.5t-256 -46.5q-106 0 -192 24l-82 -217l-88 33l82 217q-160 77 -238 244.5t-78 396.5zM217 698 q0 -415 234 -557l430 1143q-80 23 -162 23q-101 0 -191.5 -40.5t-160 -116t-110 -192.5t-40.5 -260zM537 102q73 -24 170 -24q112 0 206 40t162.5 115t107 188.5t38.5 254.5q0 206 -65 354.5t-191 216.5z" />
<glyph unicode="&#xb0;" horiz-adv-x="1978" d="M143 549q0 133 92.5 225t245.5 92q63 0 129 -19.5t134.5 -57.5t123.5 -75.5t127 -92.5q102 77 171 122.5t163 84t174 38.5q161 0 246.5 -86.5t85.5 -216.5q0 -133 -92.5 -225t-245.5 -92q-63 0 -128.5 19t-134 58t-122 75.5t-127.5 93.5q-75 -57 -127.5 -92.5t-122 -75 t-134 -59t-126.5 -19.5q-161 0 -246.5 86.5t-85.5 216.5zM260 559q0 -98 59 -157.5t168 -59.5q85 0 182 53.5t234 157.5q-70 53 -114 83.5t-103 65.5t-111 51.5t-100 16.5q-99 0 -157 -61t-58 -150zM1077 559q72 -54 114 -83.5t101.5 -65.5t111 -52t99.5 -16q99 0 157 61 t58 150q0 98 -59 157.5t-168 59.5q-83 0 -180 -54t-234 -157z" />
<glyph unicode="&#xb1;" horiz-adv-x="1146" d="M92 573v93h430v436h103v-436h430v-93h-430v-438h-103v438h-430zM100 0h947v-92h-947v92z" />
<glyph unicode="&#xb2;" horiz-adv-x="1146" d="M143 621l793 493l53 -80l-674 -411l674 -404l-51 -88zM164 0h840v-92h-840v92z" />
<glyph unicode="&#xb3;" horiz-adv-x="1146" d="M143 0h840v-92h-840v92zM158 211l673 412l-673 403l51 88l795 -489l-793 -494z" />
<glyph unicode="&#xb5;" horiz-adv-x="1275" d="M205 -516v1534h108v-664q0 -140 73.5 -212t219.5 -72q113 0 195.5 63.5t122 166.5t39.5 230v488h108v-1018h-113q0 135 19 252l-4 2q-12 -36 -29 -69t-50 -71.5t-75 -65.5t-106.5 -45.5t-141.5 -18.5q-92 0 -162.5 31t-99.5 73l-4 -2q8 -49 8 -240v-362h-108z" />
<glyph unicode="&#xb6;" d="M178 401q0 134 59.5 243t168.5 172t247 63q140 0 236.5 -69t134.5 -183q6 114 6 204q0 147 -36.5 260.5t-102.5 184.5t-154 107t-194 36l6 88q274 -9 432 -179t158 -472q0 -186 -40 -363t-128 -303q-64 -93 -166 -149.5t-225 -56.5q-194 0 -298 110.5t-104 306.5z M291 412q0 -164 82.5 -250t218.5 -86q155 0 258.5 119t103.5 292q0 132 -83 216.5t-232 84.5q-152 0 -250 -108.5t-98 -267.5z" />
<glyph unicode="&#xb7;" horiz-adv-x="1251" d="M74 -434l669 940l-628 907v82h979v-96h-840l620 -889l-665 -926h913v-100h-1048v82z" />
<glyph unicode="&#xb9;" horiz-adv-x="1382" d="M84 932v86h1165v-86h-248v-526q0 -78 1.5 -125t6.5 -87.5t13 -60.5t24 -34.5t35.5 -18.5t51.5 -4q57 0 120 18l9 -92q-69 -16 -164 -16q-65 0 -105.5 16.5t-62.5 55.5t-29.5 89.5t-7.5 131.5v653h-455v-932h-108v932h-246z" />
<glyph unicode="&#xba;" horiz-adv-x="681" d="M-2 -420q52 -18 111 -18q66 0 100.5 28.5t53 113t18.5 245.5q0 129 -10.5 463t-10.5 583q0 192 32.5 306.5t94.5 163t162 48.5q55 0 102 -12v-98q-52 18 -110 18q-66 0 -100.5 -29.5t-53 -117.5t-18.5 -256q0 -146 10 -466.5t10 -567.5q0 -191 -32.5 -305t-94.5 -162.5 t-162 -48.5q-56 0 -102 12v100z" />
<glyph unicode="&#xbb;" horiz-adv-x="765" d="M117 883q0 103 101.5 169t293.5 66v43q0 150 -145 150q-111 0 -207 -54l-6 97q93 41 227 41q123 0 177 -61t54 -156q0 -66 -1 -156t-1 -100q0 -55 0.5 -96.5t1 -61.5t0.5 -25h-106q0 59 12 117l-4 2q-18 -50 -78.5 -90.5t-128.5 -40.5q-95 0 -142.5 42t-47.5 114z M131 504v88h504v-88h-504zM221 901q0 -40 27 -64t74 -24q40 0 73 16.5t54 41t36 54.5t21 55.5t6 45.5v16q-291 0 -291 -141z" />
<glyph unicode="&#xbf;" horiz-adv-x="1148" d="M74 524q0 130 40 236.5t110 175.5t162.5 106t199.5 37q63 0 135 -14l65 170l88 -31l-63 -166q127 -55 195.5 -182.5t68.5 -318.5q0 -259 -145.5 -405t-374.5 -146q-82 0 -143 18l-74 -190l-88 30l72 189q-125 60 -186.5 188t-61.5 303zM190 539q0 -301 170 -406l326 840 q-53 12 -113 12q-164 0 -273.5 -119t-109.5 -327zM444 94q48 -14 123 -14q174 -2 282.5 116t108.5 326q0 148 -48 256t-140 160z" />
<glyph unicode="&#xc0;" horiz-adv-x="679" d="M111 266q0 37 11.5 71t30 60.5t42.5 52.5t48.5 50t47.5 49.5t40 55.5t26 63.5t6 77.5t-21 94h107q23 -67 23.5 -123.5t-17.5 -98t-45 -77t-58.5 -66.5t-59 -59.5t-45.5 -63t-18 -71.5q0 -61 48.5 -109.5t119.5 -74t150 -29.5l-15 -97q-186 12 -303.5 95.5t-117.5 199.5z M309 1018q0 32 24 55t58 23t57 -23t23 -55t-23 -54t-57 -22t-58 22t-24 54z" />
<glyph unicode="&#xc1;" horiz-adv-x="489" d="M164 1018q0 32 23 55t57 23t58 -23t24 -55t-24 -54t-58 -22t-57 22t-23 54zM180 -23l19 863h90l18 -863h-127z" />
<glyph unicode="&#xc2;" horiz-adv-x="1024" d="M82 494v92h840v-428h-93v336h-747z" />
<glyph unicode="&#xc3;" horiz-adv-x="1228" d="M0 932v86h281l223 -653q32 -90 86 -267h4q63 229 68 246l358 1208h115l-484 -1552h-123l-331 932h-197z" />
<glyph unicode="&#xc4;" horiz-adv-x="880" d="M-166 -428l6 94q57 -16 148 -16q106 0 161.5 64.5t67.5 197.5l84 862h-225v86h233l27 273q20 206 102.5 291t253.5 85q66 0 139 -12l-6 -92q-69 16 -147 16q-106 0 -161.5 -64.5t-67.5 -197.5l-29 -299h305v-86h-313l-82 -837q-20 -206 -103 -291.5t-254 -85.5 q-69 0 -139 12z" />
<glyph unicode="&#xc5;" horiz-adv-x="1228" d="M162 375q113 100 241 100q53 0 101.5 -13.5t86 -32.5t73.5 -37.5t80 -32t90 -13.5q52 0 97 20t99 62l37 -82q-119 -92 -242 -92q-70 0 -130 19.5t-96 43t-90 43t-114 19.5q-93 0 -196 -86zM162 686q113 100 241 100q53 0 101.5 -13.5t86 -32t73.5 -37.5t80 -32.5 t90 -13.5q52 0 96.5 23t99.5 70l37 -82q-107 -103 -242 -103q-70 0 -130 19.5t-96 43t-90 43t-114 19.5q-93 0 -196 -86z" />
<glyph unicode="&#xc6;" horiz-adv-x="1452" d="M80 0l575 1434h131l588 -1434h-1294zM229 96h985l-499 1237z" />
<glyph unicode="&#xc7;" horiz-adv-x="993" d="M135 500l246 344l76 -60l-209 -282l205 -279l-78 -61zM479 500l262 344l76 -60l-225 -282l221 -279l-78 -61z" />
<glyph unicode="&#xc8;" horiz-adv-x="993" d="M176 221l225 283l-221 278l78 62l256 -338l-262 -344zM537 221l208 283l-204 278l77 62l240 -338l-246 -344z" />
<glyph unicode="&#xc9;" horiz-adv-x="1245" d="M117 74q0 37 25.5 62.5t62.5 25.5t62.5 -25.5t25.5 -62.5t-25.5 -62.5t-62.5 -25.5t-62.5 25.5t-25.5 62.5zM520 74q0 37 25.5 62.5t62.5 25.5t62.5 -25.5t25.5 -62.5t-25.5 -62.5t-62.5 -25.5t-62.5 25.5t-25.5 62.5zM924 74q0 37 25.5 62.5t62.5 25.5t62.5 -25.5 t25.5 -62.5t-25.5 -62.5t-62.5 -25.5t-62.5 25.5t-25.5 62.5z" />
<glyph unicode="&#xca;" horiz-adv-x="819" />
<glyph unicode="&#xcb;" horiz-adv-x="1239" d="M37 0l526 1382h117l522 -1382h-129l-131 362h-653l-133 -362h-119zM322 453h587l-231 620q-37 101 -62 195h-2q-29 -101 -61 -189zM406 1718l75 76l228 -227l-60 -60z" />
<glyph unicode="&#xcc;" horiz-adv-x="1239" d="M37 0l526 1382h117l522 -1382h-129l-131 362h-653l-133 -362h-119zM309 1663q33 35 82.5 56.5t102.5 21.5q55 0 104.5 -23.5t94 -47t85.5 -23.5q73 0 140 67l34 -76q-73 -77 -180 -77q-46 0 -88.5 14.5t-69 32.5t-62.5 32.5t-71 14.5q-72 0 -137 -68zM322 453h587 l-231 620q-37 101 -62 195h-2q-29 -101 -61 -189z" />
<glyph unicode="&#xcd;" horiz-adv-x="1445" d="M102 678q0 171 50.5 309t137.5 227t202 137t247 48q284 0 444 -184t160 -510q0 -170 -50.5 -308t-137.5 -227.5t-202 -137.5t-246 -48q-199 0 -337 88t-203 242t-65 364zM221 705q0 -187 54.5 -326.5t169 -220t278.5 -80.5q100 0 190.5 41t160 116t110.5 190.5t41 254.5 q0 297 -133 462t-369 165q-101 0 -191.5 -41t-160 -116t-110 -190t-40.5 -255zM401 1663q33 35 82.5 56.5t102.5 21.5q55 0 104.5 -23.5t94 -47t85.5 -23.5q73 0 140 67l34 -76q-73 -77 -180 -77q-46 0 -88.5 14.5t-69 32.5t-62.5 32.5t-71 14.5q-72 0 -137 -68z" />
<glyph unicode="&#xce;" horiz-adv-x="1728" d="M102 682q0 132 32.5 246.5t91 198.5t138 144t175 90t200.5 30q47 0 134.5 -4.5t123.5 -4.5h564v-88h-562v-536h535v-88h-535v-580h562v-90h-564q-56 0 -153.5 -4t-143.5 -4q-155 0 -271.5 51.5t-187 146t-105 217.5t-34.5 275zM221 698q0 -101 15.5 -188.5t53 -167 t94.5 -136t145.5 -89.5t201.5 -33q95 0 158 14v1192q-86 13 -162 13q-102 0 -193.5 -41.5t-161.5 -117t-110.5 -191t-40.5 -255.5z" />
<glyph unicode="&#xcf;" horiz-adv-x="1433" d="M113 524q0 127 40 231.5t109.5 173.5t163 106.5t199.5 37.5q38 0 109.5 -4t103.5 -4h442v-86h-438v-387h418v-84h-418v-420h438v-88h-442q-44 0 -125 -4t-119 -4q-124 0 -218 39.5t-150.5 112t-84.5 167.5t-28 213zM229 539q0 -96 20 -175t64 -144t121.5 -101.5 t183.5 -36.5q69 0 115 10v883q-70 8 -127 8q-74 0 -141.5 -30t-120 -85t-84 -140.5t-31.5 -188.5z" />
<glyph unicode="&#xd0;" horiz-adv-x="1024" d="M0 545v94h1024v-94h-1024z" />
<glyph unicode="&#xd1;" horiz-adv-x="2048" d="M0 545v94h2048v-94h-2048z" />
<glyph unicode="&#xd2;" horiz-adv-x="784" d="M133 1138q-32 81 33 204q49 90 143 182l51 -45q-58 -62 -84.5 -120t-25.5 -94.5t18 -60.5q28 -41 7.5 -81t-64.5 -40q-56 0 -78 55zM465 1138q-32 81 33 204q49 90 143 182l51 -45q-58 -62 -84.5 -120t-25.5 -94.5t18 -60.5q28 -41 7.5 -81t-64.5 -40q-56 0 -78 55z" />
<glyph unicode="&#xd3;" horiz-adv-x="784" d="M88 1118q58 62 84.5 120t25.5 94.5t-18 60.5q-28 41 -7 80.5t65 39.5q56 0 78 -55q32 -81 -35 -204q-48 -89 -142 -181zM420 1118q58 62 84.5 120t25.5 94.5t-18 60.5q-28 41 -7.5 80.5t64.5 39.5q56 0 78 -55q32 -81 -34 -204q-48 -89 -142 -181z" />
<glyph unicode="&#xd4;" horiz-adv-x="452" d="M133 1138q-32 81 33 204q49 90 143 182l51 -45q-58 -62 -84.5 -120t-25.5 -94.5t18 -60.5q28 -41 7.5 -81t-64.5 -40q-56 0 -78 55z" />
<glyph unicode="&#xd5;" horiz-adv-x="452" d="M88 1118q58 62 84.5 120t25.5 94.5t-18 60.5q-28 41 -7 80.5t65 39.5q56 0 78 -55q32 -81 -35 -204q-48 -89 -142 -181z" />
<glyph unicode="&#xd6;" horiz-adv-x="1167" d="M92 481v94h983v-94h-983zM496 113q0 37 25.5 62.5t62.5 25.5t62.5 -25.5t25.5 -62.5t-25.5 -62.5t-62.5 -25.5t-62.5 25.5t-25.5 62.5zM496 940q0 37 25.5 62.5t62.5 25.5t62.5 -25.5t25.5 -62.5t-25.5 -62.5t-62.5 -25.5t-62.5 25.5t-25.5 62.5z" />
<glyph unicode="&#xd7;" horiz-adv-x="1253" d="M92 700l496 699h63l510 -715l-491 -700h-70zM211 705l428 -596l405 565l-428 606z" />
<glyph unicode="&#xd8;" horiz-adv-x="915" d="M33 1065h123l206 -391q61 -116 93 -193h2q43 96 104 209l205 375h117l-373 -678v-387h-111v387zM176 1352q0 34 23 57t57 23t57 -23t23 -57t-23 -57t-57 -23t-57 23t-23 57zM549 1352q0 34 23 57t57 23t57 -23t23 -57t-23 -57t-57 -23t-57 23t-23 57z" />
<glyph unicode="&#xd9;" horiz-adv-x="1050" d="M33 1382h123l256 -532q48 -98 112 -252h2q43 108 125 272l250 512h117l-443 -876v-506h-110v506zM254 1618q0 34 23 57t57 23t57 -23t23 -57t-23 -57t-57 -23t-57 23t-23 57zM627 1618q0 34 23 57t57 23t56.5 -23t22.5 -57t-22.5 -57t-56.5 -23t-57 23t-23 57z" />
<glyph unicode="&#xda;" horiz-adv-x="823" d="M-4 -190l899 1724l82 -45l-899 -1725z" />
<glyph unicode="&#xdb;" horiz-adv-x="1122" d="M137 41l158 192q-92 98 -92 281q0 165 102 262l-168 205l72 57l158 -215q75 47 186 47q118 0 195 -47l163 215l68 -57l-172 -213q76 -86 76 -250q0 -152 -88 -250l184 -225l-72 -59l-172 231q-86 -63 -207 -63q-99 0 -166 34l-151 -202zM307 516q0 -125 57 -201.5 t185 -76.5q95 0 162 79t67 203q0 119 -58 191.5t-185 72.5q-99 0 -163.5 -74t-64.5 -194z" />
<glyph unicode="&#xdc;" horiz-adv-x="643" d="M135 500l256 344l76 -60l-219 -282l215 -279l-78 -61z" />
<glyph unicode="&#xdd;" horiz-adv-x="643" d="M176 221l219 283l-215 278l78 62l250 -338l-256 -344z" />
<glyph unicode="&#xde;" horiz-adv-x="1024" d="M0 0v94h1024v-94h-1024z" />
<glyph unicode="&#xdf;" horiz-adv-x="2048" d="M0 0v94h2048v-94h-2048z" />
<glyph unicode="&#xe0;" horiz-adv-x="942" d="M92 397v86h326v561h-326v86h326v365h106v-365h326v-86h-326v-561h326v-86h-326v-397h-106v397h-326z" />
<glyph unicode="&#xe1;" horiz-adv-x="409" d="M111 592q0 40 27 67t67 27t67 -27t27 -67t-27 -67t-67 -27t-67 27t-27 67z" />
<glyph unicode="&#xe2;" horiz-adv-x="452" d="M88 -233q58 62 84.5 120t25.5 94t-18 60q-28 41 -7 81t65 40q56 0 78 -55q32 -81 -34 -204q-48 -90 -143 -182z" />
<glyph unicode="&#xe3;" horiz-adv-x="784" d="M88 -233q58 62 84.5 120t25.5 94t-18 60q-28 41 -7 81t65 40q56 0 78 -55q32 -81 -34 -204q-48 -90 -143 -182zM420 -233q58 62 84.5 120t25.5 94t-18 60q-28 41 -7.5 81t64.5 40q56 0 78 -55q32 -81 -33 -204q-49 -90 -143 -182z" />
<glyph unicode="&#xe4;" horiz-adv-x="2048" d="M100 1063q0 153 83.5 244.5t203.5 91.5q270 0 270 -305q0 -155 -83 -246.5t-209 -91.5q-265 0 -265 307zM170 12l940 1411l76 -53l-940 -1411zM205 1079q0 -117 38.5 -178t129.5 -61q88 0 133 64.5t45 176.5q0 122 -38.5 178t-135.5 56q-80 0 -126 -65.5t-46 -170.5z M700 291q0 153 83.5 244.5t203.5 91.5q270 0 270 -305q0 -155 -83 -246.5t-209 -91.5q-265 0 -265 307zM805 307q0 -117 38.5 -178t129.5 -61q88 0 133 64.5t45 176.5q0 122 -38.5 178t-135.5 56q-80 0 -126 -65.5t-46 -170.5zM1358 291q0 153 83.5 244.5t203.5 91.5 q270 0 270 -305q0 -154 -83.5 -246t-209.5 -92q-264 0 -264 307zM1462 307q0 -117 38.5 -178t129.5 -61q88 0 133 64.5t45 176.5q0 122 -38.5 178t-135.5 56q-80 0 -126 -65.5t-46 -170.5z" />
<glyph unicode="&#xe5;" horiz-adv-x="1239" d="M37 0l526 1382h117l522 -1382h-129l-131 362h-653l-133 -362h-119zM322 453h587l-231 620q-37 101 -62 195h-2q-29 -101 -61 -189zM371 1575l254 201l264 -195l-66 -65l-202 147l-191 -147z" />
<glyph unicode="&#xe6;" horiz-adv-x="1044" d="M205 0v1382h672v-88h-562v-536h535v-88h-535v-580h562v-90h-672zM274 1575l254 201l265 -195l-66 -65l-203 147l-190 -147z" />
<glyph unicode="&#xe7;" horiz-adv-x="1239" d="M37 0l526 1382h117l522 -1382h-129l-131 362h-653l-133 -362h-119zM322 453h587l-231 620q-37 101 -62 195h-2q-29 -101 -61 -189zM512 1567l227 227l76 -76l-244 -211z" />
<glyph unicode="&#xe8;" horiz-adv-x="1044" d="M205 0v1382h672v-88h-562v-536h535v-88h-535v-580h562v-90h-672zM260 1618q0 34 23 57t57 23t57 -23t23 -57t-23 -57t-57 -23t-57 23t-23 57zM633 1618q0 34 23 57t57 23t57 -23t23 -57t-23 -57t-57 -23t-57 23t-23 57z" />
<glyph unicode="&#xe9;" horiz-adv-x="1044" d="M205 0v1382h672v-88h-562v-536h535v-88h-535v-580h562v-90h-672zM332 1718l76 76l227 -227l-60 -60z" />
<glyph unicode="&#xea;" horiz-adv-x="520" d="M152 1567l227 227l76 -76l-244 -211zM205 0v1382h110v-1382h-110z" />
<glyph unicode="&#xeb;" horiz-adv-x="520" d="M8 1575l254 201l264 -195l-65 -65l-203 147l-190 -147zM205 0v1382h110v-1382h-110z" />
<glyph unicode="&#xec;" horiz-adv-x="520" d="M-8 1618q0 34 23 57t57 23t57 -23t23 -57t-23 -57t-57 -23t-57 23t-23 57zM205 0v1382h110v-1382h-110zM365 1618q0 34 22.5 57t56.5 23t57 -23t23 -57t-23 -57t-57 -23t-56.5 23t-22.5 57z" />
<glyph unicode="&#xed;" horiz-adv-x="520" d="M57 1718l76 76l227 -227l-59 -60zM205 0v1382h110v-1382h-110z" />
<glyph unicode="&#xee;" horiz-adv-x="1445" d="M102 678q0 171 50.5 309t137.5 227t202 137t247 48q284 0 444 -184t160 -510q0 -170 -50.5 -308t-137.5 -227.5t-202 -137.5t-246 -48q-199 0 -337 88t-203 242t-65 364zM221 705q0 -187 54.5 -326.5t169 -220t278.5 -80.5q100 0 190.5 41t160 116t110.5 190.5t41 254.5 q0 297 -133 462t-369 165q-101 0 -191.5 -41t-160 -116t-110 -190t-40.5 -255zM647 1567l227 227l76 -76l-243 -211z" />
<glyph unicode="&#xef;" horiz-adv-x="1445" d="M102 678q0 171 50.5 309t137.5 227t202 137t247 48q284 0 444 -184t160 -510q0 -170 -50.5 -308t-137.5 -227.5t-202 -137.5t-246 -48q-199 0 -337 88t-203 242t-65 364zM221 705q0 -187 54.5 -326.5t169 -220t278.5 -80.5q100 0 190.5 41t160 116t110.5 190.5t41 254.5 q0 297 -133 462t-369 165q-101 0 -191.5 -41t-160 -116t-110 -190t-40.5 -255zM475 1575l254 201l264 -195l-65 -65l-203 147l-190 -147z" />
<glyph unicode="&#xf0;" horiz-adv-x="4020" d="M422 803q-3 59 0 115l338 -13v-90zM870 1923q39 42 78 78l232 -248q-38 -33 -64 -59zM1272 860q0 150 58.5 286.5t157 235.5t235.5 157t288 58q200 0 369 -98.5t267.5 -268t98.5 -370.5q0 -163 -62 -302t-159 -226v-246l-53 -14l100 -236l-94 -24l94 -226l-94 -24l35 -82 l-90 -207h-148q-7 -55 -83.5 -93t-180.5 -38q-106 0 -181 37.5t-81 93.5h-147l-152 365l98 26l-98 236l109 26l-62 152v250q-100 97 -162.5 236t-62.5 296zM1380 860q0 -139 57.5 -265.5t166.5 -217.5h221l-56 471q-30 -7 -66.5 -20.5t-47.5 -16.5q-25 -7 -37.5 15.5 t-7.5 50t20 30.5q196 62 381 62q186 0 385 -62q14 -3 18.5 -30.5t-7 -50t-35.5 -15.5q-46 20 -123 37l-49 -471h219q96 83 159.5 208.5t63.5 274.5q0 128 -50 245t-134.5 201.5t-201.5 134.5t-245 50t-245 -50t-201.5 -134.5t-134.5 -201.5t-50 -245zM1577 -158l63 -153 l805 202l-65 156zM1577 -418l90 -221h690l53 123l-24 55l-258 -65l-33 82l352 88l-61 143zM1593 88l58 -137l778 199v139h-836v-201zM1849 862l49 -485h226l45 485q-63 12 -158 12q-99 0 -162 -12zM1956 2380q57 3 112 0l-12 -336h-90zM1974 918h6v2h-4v12h-2v-14zM1985 920 q0 -3 4 -3t4 3v8h-2v-8q0 -2 -2 -2t-2 2v8h-2v-8zM1996 924q-1 -6 3 -7q2 -1 4 1v2q-5 -3 -5 3t5 3v2q-6 2 -7 -4zM2009 913h2q-3 11 0 21h-2q-3 -10 0 -21zM2015 920q0 -3 2.5 -3t3.5 3v-2h2v8q0 6 -8 2v-2q6 3 6 -2q-6 0 -6 -4zM2017 920q0 2 4 2q-1 -3 -4 -2zM2028 918 q8 0 8 4q0 2 -3 2.5t-3 1.5q0 2 6 2v2q-8 0 -8 -4q0 -2 3 -2.5t3 -1.5q0 -2 -6 -2v-2zM2040 913h2q3 11 0 21h-2q3 -10 0 -21zM2843 1755l229 244q42 -39 78 -78l-246 -229q-36 41 -61 63zM3260 815v90l338 13q3 -58 0 -115z" />
<glyph unicode="&#xf1;" horiz-adv-x="1445" d="M102 678q0 171 50.5 309t137.5 227t202 137t247 48q284 0 444 -184t160 -510q0 -170 -50.5 -308t-137.5 -227.5t-202 -137.5t-246 -48q-199 0 -337 88t-203 242t-65 364zM221 705q0 -187 54.5 -326.5t169 -220t278.5 -80.5q100 0 190.5 41t160 116t110.5 190.5t41 254.5 q0 297 -133 462t-369 165q-101 0 -191.5 -41t-160 -116t-110 -190t-40.5 -255zM510 1718l76 76l227 -227l-59 -60z" />
<glyph unicode="&#xf2;" horiz-adv-x="1441" d="M205 451v931h110v-917q0 -67 10 -121.5t37 -106t70.5 -86.5t115.5 -56t167 -21q211 0 312 100.5t101 333.5v874h109v-862q0 -262 -133.5 -399t-398.5 -137q-103 0 -184.5 18.5t-135 53t-90 77t-55.5 98t-27 107.5t-8 113zM614 1567l228 227l76 -76l-244 -211z" />
<glyph unicode="&#xf3;" horiz-adv-x="1441" d="M205 451v931h110v-917q0 -67 10 -121.5t37 -106t70.5 -86.5t115.5 -56t167 -21q211 0 312 100.5t101 333.5v874h109v-862q0 -262 -133.5 -399t-398.5 -137q-103 0 -184.5 18.5t-135 53t-90 77t-55.5 98t-27 107.5t-8 113zM461 1575l254 201l264 -195l-66 -65l-202 147 l-191 -147z" />
<glyph unicode="&#xf4;" horiz-adv-x="1441" d="M205 451v931h110v-917q0 -67 10 -121.5t37 -106t70.5 -86.5t115.5 -56t167 -21q211 0 312 100.5t101 333.5v874h109v-862q0 -262 -133.5 -399t-398.5 -137q-103 0 -184.5 18.5t-135 53t-90 77t-55.5 98t-27 107.5t-8 113zM524 1718l76 76l227 -227l-59 -60z" />
<glyph unicode="&#xf5;" horiz-adv-x="569" d="M229 0v1065h111v-1065h-111z" />
<glyph unicode="&#xf6;" horiz-adv-x="901" d="M190 1268l254 200l265 -194l-66 -66l-203 148l-190 -148z" />
<glyph unicode="&#xf7;" horiz-adv-x="1073" d="M236 1356q33 35 82.5 56.5t101.5 21.5q55 0 105 -24t94.5 -47.5t85.5 -23.5q71 0 139 68l35 -76q-32 -34 -79.5 -56t-101.5 -22q-46 0 -88 15t-68.5 32.5t-62.5 32.5t-71 15q-73 0 -138 -68z" />
<glyph unicode="&#xf8;" horiz-adv-x="870" d="M205 1296v86h461v-86h-461z" />
<glyph unicode="&#xf9;" horiz-adv-x="874" d="M205 1464h82q0 -62 39.5 -105.5t109.5 -43.5q69 0 109.5 40t40.5 109h84q0 -101 -60.5 -169t-175.5 -68q-114 0 -171.5 68t-57.5 169z" />
<glyph unicode="&#xfa;" horiz-adv-x="573" d="M205 1346q0 34 24 57.5t58 23.5t58 -23t24 -58q0 -34 -24 -58t-58 -24t-58 23.5t-24 58.5z" />
<glyph unicode="&#xfb;" horiz-adv-x="819" d="M205 1348q0 84 60.5 142t144.5 58q87 0 145.5 -57.5t58.5 -142.5q0 -80 -60 -140.5t-144 -60.5q-87 0 -146 57t-59 144zM291 1348q0 -51 34 -87t85 -36t84.5 35.5t33.5 87.5q0 51 -33.5 86.5t-84.5 35.5t-85 -35.5t-34 -86.5z" />
<glyph unicode="&#xfc;" horiz-adv-x="819" d="M369 -430q183 142 90 326h114q24 -61 25.5 -119.5t-44.5 -125.5t-140 -132z" />
<glyph unicode="&#xfd;" horiz-adv-x="987" d="M193 1260l206 227l76 -76l-223 -211zM500 1260l241 227l76 -76l-258 -211z" />
<glyph unicode="&#xfe;" horiz-adv-x="538" d="M141 -287q0 60 27.5 135.5t71.5 143.5h77q-32 -56 -56.5 -130t-24.5 -118q0 -33 7 -54.5t28 -39t58.5 -18.5t98.5 8v-78q-50 -11 -94 -11q-106 0 -149.5 42t-43.5 120z" />
<glyph unicode="&#xff;" horiz-adv-x="901" d="M172 1405l66 65l202 -147l191 147l59 -59l-254 -201z" />
<glyph unicode="&#x152;" horiz-adv-x="845" d="M115 1067q0 141 86.5 235.5t222.5 94.5q41 0 78.5 -7t78.5 -29t70 -56.5t48.5 -94t19.5 -137.5q0 -153 -88.5 -248.5t-229.5 -95.5q-286 0 -286 338zM156 504v88h522v-88h-522zM229 1067q0 -48 8 -88t27 -77.5t56.5 -59t91.5 -21.5q89 0 140.5 64.5t51.5 189.5 q0 44 -9 82.5t-29 73.5t-57.5 55.5t-88.5 20.5q-79 0 -135 -60t-56 -180z" />
<glyph unicode="&#x153;" horiz-adv-x="1533" d="M145 0v84h330q-154 97 -236.5 260t-82.5 369q0 309 171 499.5t449 190.5q133 0 242 -44t188 -127.5t122.5 -212t43.5 -290.5q0 -216 -88.5 -383.5t-236.5 -261.5h331v-84h-430v98q151 106 231.5 253t80.5 360q0 127 -30.5 236t-90 193t-153.5 131.5t-214 47.5 q-231 0 -368.5 -165t-137.5 -433q0 -211 74.5 -358t243.5 -265v-98h-439z" />
<glyph unicode="&#x178;" horiz-adv-x="1298" d="M-74 0l615 1065h585v-86h-428v-389h412v-82h-412v-422h447v-86h-557v274h-391l-154 -274h-117zM240 354h348v611h-4q-52 -101 -113 -209z" />
<glyph unicode="&#x2000;" horiz-adv-x="1190" />
<glyph unicode="&#x2001;" horiz-adv-x="2381" />
<glyph unicode="&#x2002;" horiz-adv-x="1190" />
<glyph unicode="&#x2003;" horiz-adv-x="2381" />
<glyph unicode="&#x2004;" horiz-adv-x="793" />
<glyph unicode="&#x2005;" horiz-adv-x="595" />
<glyph unicode="&#x2006;" horiz-adv-x="396" />
<glyph unicode="&#x2007;" horiz-adv-x="396" />
<glyph unicode="&#x2008;" horiz-adv-x="297" />
<glyph unicode="&#x2009;" horiz-adv-x="476" />
<glyph unicode="&#x200a;" horiz-adv-x="132" />
<glyph unicode="&#x2010;" horiz-adv-x="667" d="M102 463v88h463v-88h-463z" />
<glyph unicode="&#x2011;" horiz-adv-x="667" d="M102 463v88h463v-88h-463z" />
<glyph unicode="&#x2012;" horiz-adv-x="667" d="M102 463v88h463v-88h-463z" />
<glyph unicode="&#x2013;" horiz-adv-x="1228" d="M102 463v88h1024v-88h-1024z" />
<glyph unicode="&#x2014;" horiz-adv-x="2252" d="M102 463v88h2048v-88h-2048z" />
<glyph unicode="&#x202f;" horiz-adv-x="476" />
<glyph unicode="&#x205f;" horiz-adv-x="595" />
<glyph unicode="&#x20ac;" horiz-adv-x="999" d="M123 930q0 127 54.5 268t144.5 236q111 114 282 114q87 0 152 -14l-6 -94q-76 20 -166 20q-224 0 -224 -219q0 -54 27.5 -110.5t71.5 -108.5t97.5 -108t107 -118.5t97.5 -130t71.5 -153.5t27.5 -178q0 -126 -55 -267.5t-146 -234.5q-108 -108 -284 -108q-83 0 -152 14 l6 102q77 -24 168 -24q108 0 166 51.5t58 140.5q0 57 -27.5 116.5t-71.5 115t-97 114t-106 123t-97 132t-71.5 151t-27.5 170.5zM225 965q0 -85 24.5 -163t64 -139.5t88 -119t99 -113t93.5 -110t74.5 -120.5t40.5 -134q49 123 49 243q0 85 -25.5 163.5t-66.5 140.5 t-91.5 121t-102 114t-95 108.5t-73.5 116.5t-36 127q-43 -121 -43 -235z" />
<glyph unicode="&#xe000;" horiz-adv-x="1064" d="M0 0v1065h1065v-1065h-1065z" />
</font>
</defs>
</svg>
